<svg width="64" height="64" viewBox="0 0 64 64" xmlns="http://www.w3.org/2000/svg">
  <!-- Envelope body -->
  <rect x="6" y="24" width="52" height="32" rx="3" fill="#313244" stroke="#cba6f7" stroke-width="2"/>
  <!-- Envelope flap lines -->
  <line x1="6" y1="56" x2="32" y2="40" stroke="#cba6f7" stroke-width="1.2" opacity="0.45"/>
  <line x1="58" y1="56" x2="32" y2="40" stroke="#cba6f7" stroke-width="1.2" opacity="0.45"/>
  <!-- Envelope flap -->
  <polygon points="6,24 58,24 32,45" fill="#3a3c52" stroke="#cba6f7" stroke-width="2" stroke-linejoin="round"/>
  <!-- Umbrella -->
  <g transform="translate(14, 2) scale(2.35)" fill="#cba6f7">
    <path d="M8 0a.5.5 0 0 1 .5.5v.514C12.625 1.238 16 4.22 16 8c0 0 0 .5-.5.5-.149 0-.352-.145-.352-.145l-.004-.004-.025-.023a3.484 3.484 0 0 0-.555-.394A3.166 3.166 0 0 0 13 7.5c-.638 0-1.178.213-1.564.434a3.484 3.484 0 0 0-.555.394l-.025.023-.003.003s-.204.146-.353.146-.352-.145-.352-.145l-.004-.004-.025-.023a3.484 3.484 0 0 0-.555-.394A3.3 3.3 0 0 0 8.5 7.544V13.5H8h.5v.039l-.005.083a2.958 2.958 0 0 1-.298 1.102 2.257 2.257 0 0 1-.763.88C7.06 15.851 6.587 16 6 16s-1.061-.148-1.434-.396a2.255 2.255 0 0 1-.763-.88 2.958 2.958 0 0 1-.302-1.185v-.025l-.001-.009v-.003s0-.002.5-.002h-.5V13a.5.5 0 0 1 1 0v.506l.003.044a1.958 1.958 0 0 0 .195.726c.095.191.23.367.423.495.19.127.466.229.879.229s.689-.102.879-.229c.193-.128.328-.304.424-.495a1.958 1.958 0 0 0 .197-.77V7.544a3.3 3.3 0 0 0-1.064.39 3.482 3.482 0 0 0-.58.417l-.004.004S5.65 8.5 5.5 8.5c-.149 0-.352-.145-.352-.145l-.003-.004-.026-.023a3.484 3.484 0 0 0-.556-.394A3.166 3.166 0 0 0 3 7.5c-.638 0-1.178.213-1.564.434a3.484 3.484 0 0 0-.555.394L.856 8.351S.5 8.5.5 8.5.5 8 .5 8C.5 4.22 3.375 1.238 7.5 1.014V.5A.5.5 0 0 1 8 0z"/>
  </g>
</svg>
