<svg width="100%" viewBox="0 0 680 480" xmlns="http://www.w3.org/2000/svg">

<rect x="140" y="20" width="400" height="440" rx="20" fill="#1e1e2e" style="fill:rgb(30, 30, 46);stroke:none;color:rgb(0, 0, 0);stroke-width:1px;stroke-linecap:butt;stroke-linejoin:miter;opacity:1;font-family:&quot;Anthropic Sans&quot;, -apple-system, &quot;system-ui&quot;, &quot;Segoe UI&quot;, sans-serif;font-size:16px;font-weight:400;text-anchor:start;dominant-baseline:auto"/>

<!-- ENVELOPE -->
<rect x="200" y="210" width="280" height="170" rx="4" fill="#313244" stroke="#cba6f7" stroke-width="1.8" style="fill:rgb(49, 50, 68);stroke:rgb(203, 166, 247);color:rgb(0, 0, 0);stroke-width:1.8px;stroke-linecap:butt;stroke-linejoin:miter;opacity:1;font-family:&quot;Anthropic Sans&quot;, -apple-system, &quot;system-ui&quot;, &quot;Segoe UI&quot;, sans-serif;font-size:16px;font-weight:400;text-anchor:start;dominant-baseline:auto"/>
<line x1="200" y1="380" x2="340" y2="295" stroke="#cba6f7" stroke-width="1.2" opacity="0.45" style="fill:rgb(0, 0, 0);stroke:rgb(203, 166, 247);color:rgb(0, 0, 0);stroke-width:1.2px;stroke-linecap:butt;stroke-linejoin:miter;opacity:0.45;font-family:&quot;Anthropic Sans&quot;, -apple-system, &quot;system-ui&quot;, &quot;Segoe UI&quot;, sans-serif;font-size:16px;font-weight:400;text-anchor:start;dominant-baseline:auto"/>
<line x1="480" y1="380" x2="340" y2="295" stroke="#cba6f7" stroke-width="1.2" opacity="0.45" style="fill:rgb(0, 0, 0);stroke:rgb(203, 166, 247);color:rgb(0, 0, 0);stroke-width:1.2px;stroke-linecap:butt;stroke-linejoin:miter;opacity:0.45;font-family:&quot;Anthropic Sans&quot;, -apple-system, &quot;system-ui&quot;, &quot;Segoe UI&quot;, sans-serif;font-size:16px;font-weight:400;text-anchor:start;dominant-baseline:auto"/>
<polygon points="200,210 480,210 340,320" fill="#3a3c52" stroke="#cba6f7" stroke-width="1.8" stroke-linejoin="round" style="fill:rgb(58, 60, 82);stroke:rgb(203, 166, 247);color:rgb(0, 0, 0);stroke-width:1.8px;stroke-linecap:butt;stroke-linejoin:round;opacity:1;font-family:&quot;Anthropic Sans&quot;, -apple-system, &quot;system-ui&quot;, &quot;Segoe UI&quot;, sans-serif;font-size:16px;font-weight:400;text-anchor:start;dominant-baseline:auto"/>

<!-- UMBRELLA -->
<g transform="translate(252, 75) scale(11)" fill="#cba6f7" style="fill:rgb(203, 166, 247);stroke:none;color:rgb(0, 0, 0);stroke-width:1px;stroke-linecap:butt;stroke-linejoin:miter;opacity:1;font-family:&quot;Anthropic Sans&quot;, -apple-system, &quot;system-ui&quot;, &quot;Segoe UI&quot;, sans-serif;font-size:16px;font-weight:400;text-anchor:start;dominant-baseline:auto">
  <path d="M8 0a.5.5 0 0 1 .5.5v.514C12.625 1.238 16 4.22 16 8c0 0 0 .5-.5.5-.149 0-.352-.145-.352-.145l-.004-.004-.025-.023a3.484 3.484 0 0 0-.555-.394A3.166 3.166 0 0 0 13 7.5c-.638 0-1.178.213-1.564.434a3.484 3.484 0 0 0-.555.394l-.025.023-.003.003s-.204.146-.353.146-.352-.145-.352-.145l-.004-.004-.025-.023a3.484 3.484 0 0 0-.555-.394A3.3 3.3 0 0 0 8.5 7.544V13.5H8h.5v.039l-.005.083a2.958 2.958 0 0 1-.298 1.102 2.257 2.257 0 0 1-.763.88C7.06 15.851 6.587 16 6 16s-1.061-.148-1.434-.396a2.255 2.255 0 0 1-.763-.88 2.958 2.958 0 0 1-.302-1.185v-.025l-.001-.009v-.003s0-.002.5-.002h-.5V13a.5.5 0 0 1 1 0v.506l.003.044a1.958 1.958 0 0 0 .195.726c.095.191.23.367.423.495.19.127.466.229.879.229s.689-.102.879-.229c.193-.128.328-.304.424-.495a1.958 1.958 0 0 0 .197-.77V7.544a3.3 3.3 0 0 0-1.064.39 3.482 3.482 0 0 0-.58.417l-.004.004S5.65 8.5 5.5 8.5c-.149 0-.352-.145-.352-.145l-.003-.004-.026-.023a3.484 3.484 0 0 0-.556-.394A3.166 3.166 0 0 0 3 7.5c-.638 0-1.178.213-1.564.434a3.484 3.484 0 0 0-.555.394L.856 8.351S.5 8.5.5 8.5.5 8 .5 8C.5 4.22 3.375 1.238 7.5 1.014V.5A.5.5 0 0 1 8 0z" style="fill:rgb(203, 166, 247);stroke:none;color:rgb(0, 0, 0);stroke-width:1px;stroke-linecap:butt;stroke-linejoin:miter;opacity:1;font-family:&quot;Anthropic Sans&quot;, -apple-system, &quot;system-ui&quot;, &quot;Segoe UI&quot;, sans-serif;font-size:16px;font-weight:400;text-anchor:start;dominant-baseline:auto"/>
</g>

<!-- WORDMARK -->
<text x="340" y="428" text-anchor="middle" font-family="'JetBrains Mono','SF Mono','Fira Code',monospace" font-size="26" font-weight="500" letter-spacing="0.5" style="fill:rgb(0, 0, 0);stroke:none;color:rgb(0, 0, 0);stroke-width:1px;stroke-linecap:butt;stroke-linejoin:miter;opacity:1;font-family:&quot;JetBrains Mono&quot;, &quot;SF Mono&quot;, &quot;Fira Code&quot;, monospace;font-size:26px;font-weight:500;text-anchor:middle;dominant-baseline:auto">
  <tspan fill="#cdd6f4" style="fill:rgb(205, 214, 244);stroke:none;color:rgb(0, 0, 0);stroke-width:1px;stroke-linecap:butt;stroke-linejoin:miter;opacity:1;font-family:&quot;JetBrains Mono&quot;, &quot;SF Mono&quot;, &quot;Fira Code&quot;, monospace;font-size:26px;font-weight:500;text-anchor:middle;dominant-baseline:auto">maily</tspan><tspan fill="#cba6f7" style="fill:rgb(203, 166, 247);stroke:none;color:rgb(0, 0, 0);stroke-width:1px;stroke-linecap:butt;stroke-linejoin:miter;opacity:1;font-family:&quot;JetBrains Mono&quot;, &quot;SF Mono&quot;, &quot;Fira Code&quot;, monospace;font-size:26px;font-weight:500;text-anchor:middle;dominant-baseline:auto">poppins</tspan>
</text>

<!-- Peach dot: cy 413 → 408 -->
<circle cx="397" cy="408" r="3.2" fill="#fab387" style="fill:rgb(250, 179, 135);stroke:none;color:rgb(0, 0, 0);stroke-width:1px;stroke-linecap:butt;stroke-linejoin:miter;opacity:1;font-family:&quot;Anthropic Sans&quot;, -apple-system, &quot;system-ui&quot;, &quot;Segoe UI&quot;, sans-serif;font-size:16px;font-weight:400;text-anchor:start;dominant-baseline:auto"/>

</svg>